<svg width="910" height="494" viewBox="0 0 910 494" fill="none" xmlns="http://www.w3.org/2000/svg">
<g opacity="0.9">
<path d="M301.106 207.858L304.495 207.649C313.924 207.067 322.089 211.168 328.993 219.949C331.626 224.001 333.18 228.26 333.654 232.729L337.065 264.867C338.103 274.647 334.149 282.77 325.203 289.235C321.288 291.53 316.876 292.829 311.968 293.132C299.291 293.913 289.772 288.445 283.41 276.726C282.15 273.9 281.323 270.622 280.927 266.893L277.762 237.077C276.486 225.045 281.24 216.094 292.027 210.223C294.936 208.84 297.963 208.051 301.106 207.858ZM293.862 236.563L296.965 265.798C297.458 270.442 300.337 273.965 305.604 276.367C307.221 276.87 308.63 277.084 309.831 277.01L310.413 276.974C315.816 276.641 319.267 273.152 320.765 266.509C320.848 264.946 320.819 263.496 320.677 262.159L318.033 237.25C317.361 230.918 314.43 226.743 309.24 224.726C307.573 224.085 306.015 223.809 304.567 223.898C298.953 224.244 295.386 227.81 293.867 234.597C293.811 235.415 293.81 236.07 293.862 236.563ZM356.351 204.452L395.865 202.016C398.196 201.873 399.68 203.304 400.319 206.31L401.064 213.328C401.064 216.338 399.898 217.915 397.568 218.059L374.156 219.502C372.072 219.631 370.669 220.638 369.945 222.524L369.923 224.331L370.999 234.463C371.223 236.574 372.758 237.808 375.603 238.163L391.388 237.19C393.859 237.038 395.416 238.642 396.057 242.002L396.589 247.015C397.011 250.991 395.897 253.06 393.249 253.223L378.206 254.151C374.816 254.36 373.282 255.977 373.603 259.002L376.358 284.966C376.609 287.323 375.255 288.806 372.299 289.413L365.254 289.847C362.172 289.612 360.506 288.316 360.256 285.959L352.135 209.439C351.9 207.223 352.764 205.647 354.726 204.712C355.386 204.565 355.927 204.478 356.351 204.452ZM452.753 198.509L490.254 196.198C493.75 195.982 495.67 197.493 496.013 200.729L496.708 207.273C496.648 210.393 495.488 212.023 493.228 212.162L485.6 212.632C482.898 213.295 481.663 214.716 481.895 216.898L488.29 277.163C488.331 280.56 487.168 282.332 484.802 282.478L476.645 282.98C473.941 282.616 472.477 281.378 472.253 279.267L465.812 218.579C465.581 216.398 464.398 214.966 462.264 214.283C461.613 214.182 461.059 214.145 460.6 214.173L453.184 214.63C450.924 214.77 449.436 213.303 448.719 210.231L448.047 203.899C447.688 200.521 449.257 198.725 452.753 198.509ZM520.446 194.336L527.914 193.876C530.961 194.113 532.609 195.41 532.859 197.768L535.676 224.312C535.919 226.599 537.577 227.824 540.651 227.989L555.641 227.065C558.644 226.561 560.023 225.148 559.776 222.826L557.055 197.179C556.943 193.786 558.159 192.012 560.701 191.855L568.488 191.375C571.196 191.775 572.654 192.96 572.863 194.93L581.141 272.927C581.324 274.651 580.127 275.929 577.549 276.76L570.293 277.208C568.033 277.347 566.399 276.35 565.39 274.217C565.217 273.59 565.101 272.995 565.041 272.432L562.302 246.627C562.067 244.41 560.485 243.233 557.556 243.095L541.771 244.068C539.175 244.723 537.991 246.124 538.219 248.27L540.98 274.287C541.215 276.504 540.351 278.08 538.389 279.015C537.729 279.162 537.188 279.248 536.764 279.274L530.249 279.676C527.065 279.483 525.354 278.26 525.115 276.009L516.893 198.539C517.178 195.866 518.362 194.465 520.446 194.336ZM598.203 189.543L637.717 187.107C640.083 186.962 641.586 188.569 642.227 191.929L642.86 197.892C642.932 201.252 641.785 203.004 639.419 203.15L615.849 204.603C612.849 205.142 611.465 206.502 611.697 208.684L612.867 219.713C613.099 221.894 614.751 223.067 617.826 223.232L633.239 222.282C635.947 222.681 637.412 223.919 637.632 225.995L638.494 234.121C638.245 236.793 637.113 238.19 635.101 238.314L619.687 239.265C617.674 239.389 616.31 240.27 615.596 241.907L615.359 243.197L616.563 254.543C617.421 256.933 619.122 258.05 621.664 257.893L645.235 256.44C647.837 256.846 649.241 258.017 649.446 259.952L650.37 268.659C650.549 270.348 649.405 271.623 646.937 272.483L606.523 274.974C603.815 274.575 602.35 273.337 602.13 271.261L593.909 193.792C594.052 191.127 595.484 189.711 598.203 189.543Z" fill="#FFF0D0"/>
<path d="M328.993 219.949L329.815 219.444L329.789 219.405L329.76 219.368L328.993 219.949ZM325.203 289.235L325.732 290.084L325.77 290.062L325.806 290.036L325.203 289.235ZM283.41 276.726L282.51 277.089L282.527 277.126L282.546 277.161L283.41 276.726ZM292.027 210.223L291.569 209.337L291.546 209.348L291.524 209.36L292.027 210.223ZM305.604 276.367L305.225 277.254L305.284 277.281L305.347 277.301L305.604 276.367ZM320.765 266.509L321.728 266.762L321.746 266.684L321.75 266.603L320.765 266.509ZM309.24 224.726L309.565 223.816L309.561 223.814L309.24 224.726ZM293.867 234.597L292.903 234.345L292.887 234.416L292.883 234.489L293.867 234.597ZM301.106 207.858L301.209 208.835L304.599 208.626L304.495 207.649L304.392 206.671L301.002 206.88L301.106 207.858ZM304.495 207.649L304.599 208.626C313.637 208.069 321.493 211.967 328.225 220.53L328.993 219.949L329.76 219.368C322.686 210.369 314.211 206.066 304.392 206.671L304.495 207.649ZM328.993 219.949L328.171 220.454C330.722 224.379 332.217 228.487 332.673 232.789L333.654 232.729L334.635 232.668C334.144 228.034 332.531 223.622 329.815 219.444L328.993 219.949ZM333.654 232.729L332.673 232.789L336.084 264.927L337.065 264.867L338.046 264.806L334.635 232.668L333.654 232.729ZM337.065 264.867L336.084 264.927C337.08 274.314 333.322 282.132 324.6 288.435L325.203 289.235L325.806 290.036C334.976 283.408 339.126 274.98 338.046 264.806L337.065 264.867ZM325.203 289.235L324.674 288.386C320.896 290.601 316.632 291.861 311.864 292.154L311.968 293.132L312.072 294.109C317.121 293.798 321.68 292.459 325.732 290.084L325.203 289.235ZM311.968 293.132L311.864 292.154C305.686 292.535 300.342 291.391 295.787 288.774C291.228 286.156 287.383 282.019 284.274 276.291L283.41 276.726L282.546 277.161C285.798 283.152 289.894 287.609 294.855 290.459C299.819 293.31 305.573 294.51 312.072 294.109L311.968 293.132ZM283.41 276.726L284.309 276.363C283.101 273.653 282.295 270.481 281.908 266.833L280.927 266.893L279.946 266.954C280.35 270.764 281.199 274.147 282.51 277.089L283.41 276.726ZM280.927 266.893L281.908 266.833L278.744 237.016L277.762 237.077L276.781 237.137L279.946 266.954L280.927 266.893ZM277.762 237.077L278.744 237.016C278.122 231.158 278.973 226.109 281.248 221.825C283.524 217.54 287.263 213.953 292.529 211.087L292.027 210.223L291.524 209.36C286.004 212.364 281.972 216.188 279.494 220.854C277.014 225.522 276.126 230.964 276.781 237.137L277.762 237.077ZM292.027 210.223L292.484 211.11C295.288 209.777 298.195 209.021 301.209 208.835L301.106 207.858L301.002 206.88C297.731 207.082 294.585 207.903 291.569 209.337L292.027 210.223ZM293.862 236.563L292.881 236.623L295.984 265.859L296.965 265.798L297.946 265.738L294.843 236.502L293.862 236.563ZM296.965 265.798L295.984 265.859C296.523 270.944 299.711 274.739 305.225 277.254L305.604 276.367L305.983 275.48C300.964 273.191 298.392 269.941 297.946 265.738L296.965 265.798ZM305.604 276.367L305.347 277.301C307.039 277.826 308.576 278.071 309.934 277.987L309.831 277.01L309.727 276.032C308.684 276.097 307.403 275.913 305.861 275.434L305.604 276.367ZM309.831 277.01L309.934 277.987L310.517 277.951L310.413 276.974L310.309 275.996L309.727 276.032L309.831 277.01ZM310.413 276.974L310.517 277.951C313.433 277.771 315.871 276.73 317.772 274.809C319.656 272.904 320.955 270.193 321.728 266.762L320.765 266.509L319.802 266.256C319.077 269.469 317.901 271.823 316.335 273.406C314.784 274.974 312.796 275.843 310.309 275.996L310.413 276.974ZM320.765 266.509L321.75 266.603C321.836 264.997 321.806 263.495 321.658 262.098L320.677 262.159L319.696 262.219C319.831 263.497 319.861 264.895 319.78 266.415L320.765 266.509ZM320.677 262.159L321.658 262.098L319.014 237.19L318.033 237.25L317.052 237.311L319.696 262.219L320.677 262.159ZM318.033 237.25L319.014 237.19C318.665 233.899 317.721 231.097 316.132 228.834C314.537 226.562 312.333 224.891 309.565 223.816L309.24 224.726L308.916 225.635C311.338 226.577 313.194 228.003 314.53 229.906C315.872 231.817 316.729 234.269 317.052 237.311L318.033 237.25ZM309.24 224.726L309.561 223.814C307.785 223.132 306.082 222.821 304.463 222.921L304.567 223.898L304.671 224.876C305.948 224.797 307.36 225.037 308.919 225.637L309.24 224.726ZM304.567 223.898L304.463 222.921C301.446 223.107 298.926 224.168 296.966 226.127C295.021 228.072 293.688 230.84 292.903 234.345L293.867 234.597L294.83 234.849C295.565 231.567 296.774 229.159 298.396 227.537C300.003 225.931 302.074 225.036 304.671 224.876L304.567 223.898ZM293.867 234.597L292.883 234.489C292.825 235.331 292.82 236.05 292.881 236.623L293.862 236.563L294.843 236.502C294.8 236.09 294.797 235.498 294.851 234.705L293.867 234.597ZM400.319 206.31L401.3 206.249L401.295 206.198L401.284 206.148L400.319 206.31ZM401.064 213.328L402.051 213.371L402.051 213.32L402.045 213.268L401.064 213.328ZM369.945 222.524L369.021 222.141L368.96 222.299L368.958 222.47L369.945 222.524ZM369.923 224.331L368.937 224.277L368.936 224.334L368.942 224.392L369.923 224.331ZM375.603 238.163L375.522 239.135L375.615 239.146L375.707 239.141L375.603 238.163ZM396.057 242.002L397.038 241.941L397.034 241.901L397.026 241.86L396.057 242.002ZM372.299 289.413L372.402 290.39L372.471 290.386L372.538 290.372L372.299 289.413ZM365.254 289.847L365.221 290.824L365.289 290.829L365.358 290.825L365.254 289.847ZM354.726 204.712L354.47 203.756L354.365 203.779L354.268 203.825L354.726 204.712ZM356.351 204.452L356.455 205.429L395.969 202.994L395.865 202.016L395.761 201.039L356.247 203.475L356.351 204.452ZM395.865 202.016L395.969 202.994C396.9 202.936 397.556 203.188 398.055 203.67C398.59 204.185 399.057 205.071 399.354 206.472L400.319 206.31L401.284 206.148C400.943 204.542 400.348 203.21 399.398 202.294C398.413 201.344 397.161 200.952 395.761 201.039L395.865 202.016ZM400.319 206.31L399.338 206.37L400.083 213.389L401.064 213.328L402.045 213.268L401.3 206.249L400.319 206.31ZM401.064 213.328L400.078 213.286C400.078 214.685 399.803 215.602 399.386 216.167C398.994 216.697 398.399 217.024 397.464 217.081L397.568 218.059L397.671 219.036C399.067 218.95 400.22 218.417 400.994 217.37C401.742 216.358 402.051 214.982 402.051 213.371L401.064 213.328ZM397.568 218.059L397.464 217.081L374.052 218.525L374.156 219.502L374.26 220.48L397.671 219.036L397.568 218.059ZM374.156 219.502L374.052 218.525C372.863 218.598 371.811 218.927 370.94 219.552C370.069 220.177 369.437 221.058 369.021 222.141L369.945 222.524L370.869 222.907C371.177 222.104 371.609 221.538 372.141 221.156C372.674 220.774 373.365 220.535 374.26 220.48L374.156 219.502ZM369.945 222.524L368.958 222.47L368.937 224.277L369.923 224.331L370.91 224.385L370.931 222.578L369.945 222.524ZM369.923 224.331L368.942 224.392L370.018 234.524L370.999 234.463L371.98 234.403L370.904 224.271L369.923 224.331ZM370.999 234.463L370.018 234.524C370.155 235.817 370.712 236.914 371.718 237.722C372.691 238.504 373.995 238.944 375.522 239.135L375.603 238.163L375.684 237.192C374.366 237.027 373.48 236.672 372.918 236.221C372.388 235.795 372.067 235.22 371.98 234.403L370.999 234.463ZM375.603 238.163L375.707 239.141L391.491 238.168L391.388 237.19L391.284 236.213L375.499 237.186L375.603 238.163ZM391.388 237.19L391.491 238.168C392.476 238.107 393.175 238.388 393.713 238.942C394.292 239.539 394.785 240.557 395.088 242.143L396.057 242.002L397.026 241.86C396.687 240.086 396.082 238.623 395.105 237.616C394.087 236.566 392.771 236.121 391.284 236.213L391.388 237.19ZM396.057 242.002L395.076 242.062L395.608 247.076L396.589 247.015L397.57 246.955L397.038 241.941L396.057 242.002ZM396.589 247.015L395.608 247.076C395.811 248.986 395.621 250.268 395.196 251.059C394.81 251.775 394.182 252.182 393.145 252.246L393.249 253.223L393.353 254.201C394.965 254.101 396.217 253.391 396.945 252.039C397.633 250.76 397.789 249.02 397.57 246.955L396.589 247.015ZM393.249 253.223L393.145 252.246L378.102 253.173L378.206 254.151L378.31 255.128L393.353 254.201L393.249 253.223ZM378.206 254.151L378.102 253.173C376.281 253.285 374.775 253.785 373.781 254.833C372.768 255.9 372.442 257.37 372.622 259.063L373.603 259.002L374.584 258.942C374.443 257.609 374.723 256.758 375.245 256.208C375.785 255.638 376.741 255.225 378.31 255.128L378.206 254.151ZM373.603 259.002L372.622 259.063L375.377 285.027L376.358 284.966L377.339 284.906L374.584 258.942L373.603 259.002ZM376.358 284.966L375.377 285.027C375.478 285.98 375.255 286.658 374.787 287.171C374.293 287.713 373.43 288.172 372.059 288.453L372.299 289.413L372.538 290.372C374.123 290.047 375.416 289.461 376.275 288.521C377.16 287.551 377.488 286.31 377.339 284.906L376.358 284.966ZM372.299 289.413L372.195 288.435L365.15 288.87L365.254 289.847L365.358 290.825L372.402 290.39L372.299 289.413ZM365.254 289.847L365.287 288.871C363.854 288.761 362.892 288.414 362.28 287.938C361.703 287.489 361.338 286.848 361.237 285.898L360.256 285.959L359.275 286.019C359.424 287.427 360.017 288.613 361.106 289.46C362.161 290.28 363.572 290.698 365.221 290.824L365.254 289.847ZM360.256 285.959L361.237 285.898L353.116 209.379L352.135 209.439L351.154 209.5L359.275 286.019L360.256 285.959ZM352.135 209.439L353.116 209.379C353.015 208.423 353.157 207.678 353.478 207.091C353.799 206.506 354.343 205.999 355.184 205.598L354.726 204.712L354.268 203.825C353.147 204.36 352.278 205.109 351.735 206.099C351.193 207.088 351.021 208.239 351.154 209.5L352.135 209.439ZM354.726 204.712L354.981 205.668C355.617 205.526 356.103 205.451 356.455 205.429L356.351 204.452L356.247 203.475C355.751 203.505 355.154 203.603 354.47 203.756L354.726 204.712ZM496.708 207.273L497.694 207.334L497.695 207.274L497.689 207.213L496.708 207.273ZM485.6 212.632L485.497 211.655L485.409 211.66L485.325 211.681L485.6 212.632ZM488.29 277.163L489.277 277.194L489.276 277.149L489.271 277.103L488.29 277.163ZM476.645 282.98L476.555 283.951L476.652 283.964L476.749 283.958L476.645 282.98ZM462.264 214.283L462.529 213.352L462.454 213.328L462.376 213.316L462.264 214.283ZM448.719 210.231L447.738 210.292L447.744 210.353L447.758 210.413L448.719 210.231ZM452.753 198.509L452.856 199.487L490.358 197.175L490.254 196.198L490.15 195.22L452.649 197.532L452.753 198.509ZM490.254 196.198L490.358 197.175C491.972 197.076 493.039 197.387 493.724 197.926C494.394 198.453 494.878 199.341 495.032 200.79L496.013 200.729L496.994 200.669C496.804 198.881 496.157 197.395 494.908 196.412C493.673 195.44 492.032 195.104 490.15 195.22L490.254 196.198ZM496.013 200.729L495.032 200.79L495.727 207.334L496.708 207.273L497.689 207.213L496.994 200.669L496.013 200.729ZM496.708 207.273L495.721 207.212C495.693 208.676 495.406 209.647 494.979 210.247C494.581 210.806 494.001 211.13 493.124 211.185L493.228 212.162L493.332 213.139C494.714 213.054 495.845 212.494 496.607 211.423C497.339 210.394 497.662 208.991 497.694 207.334L496.708 207.273ZM493.228 212.162L493.124 211.185L485.497 211.655L485.6 212.632L485.704 213.61L493.332 213.139L493.228 212.162ZM485.6 212.632L485.325 211.681C483.867 212.038 482.677 212.63 481.888 213.537C481.077 214.472 480.774 215.644 480.914 216.958L481.895 216.898L482.876 216.837C482.784 215.97 482.983 215.341 483.406 214.853C483.853 214.339 484.632 213.888 485.876 213.584L485.6 212.632ZM481.895 216.898L480.914 216.958L487.309 277.224L488.29 277.163L489.271 277.103L482.876 216.837L481.895 216.898ZM488.29 277.163L487.304 277.132C487.323 278.741 487.052 279.816 486.615 280.48C486.212 281.095 485.614 281.444 484.699 281.5L484.802 282.478L484.906 283.455C486.357 283.366 487.523 282.756 488.282 281.599C489.009 280.492 489.298 278.982 489.277 277.194L488.29 277.163ZM484.802 282.478L484.699 281.5L476.542 282.003L476.645 282.98L476.749 283.958L484.906 283.455L484.802 282.478ZM476.645 282.98L476.736 282.01C475.496 281.843 474.667 281.491 474.139 281.045C473.638 280.621 473.322 280.04 473.234 279.207L472.253 279.267L471.272 279.328C471.407 280.605 471.936 281.699 472.899 282.513C473.835 283.305 475.09 283.753 476.555 283.951L476.645 282.98ZM472.253 279.267L473.234 279.207L466.793 218.519L465.812 218.579L464.831 218.64L471.272 279.328L472.253 279.267ZM465.812 218.579L466.793 218.519C466.661 217.273 466.248 216.17 465.503 215.269C464.76 214.368 463.745 213.741 462.529 213.352L462.264 214.283L461.999 215.214C462.917 215.508 463.561 215.939 464 216.47C464.438 217.001 464.732 217.705 464.831 218.64L465.812 218.579ZM462.264 214.283L462.376 213.316C461.681 213.207 461.049 213.162 460.496 213.196L460.6 214.173L460.703 215.151C461.068 215.128 461.546 215.156 462.152 215.25L462.264 214.283ZM460.6 214.173L460.496 213.196L453.08 213.653L453.184 214.63L453.288 215.608L460.703 215.151L460.6 214.173ZM453.184 214.63L453.08 213.653C452.203 213.707 451.563 213.458 451.052 212.955C450.504 212.415 450.016 211.491 449.679 210.05L448.719 210.231L447.758 210.413C448.139 212.043 448.753 213.389 449.693 214.315C450.671 215.278 451.905 215.693 453.288 215.608L453.184 214.63ZM448.719 210.231L449.7 210.171L449.028 203.838L448.047 203.899L447.066 203.959L447.738 210.292L448.719 210.231ZM448.047 203.899L449.028 203.838C448.865 202.308 449.157 201.314 449.712 200.678C450.272 200.036 451.252 199.586 452.856 199.487L452.753 198.509L452.649 197.532C450.757 197.649 449.205 198.204 448.197 199.359C447.183 200.519 446.869 202.112 447.066 203.959L448.047 203.899ZM527.914 193.876L527.949 192.9L527.879 192.894L527.81 192.899L527.914 193.876ZM540.651 227.989L540.641 228.967L540.698 228.97L540.755 228.966L540.651 227.989ZM555.641 227.065L555.745 228.042L555.796 228.039L555.846 228.031L555.641 227.065ZM557.055 197.179L556.069 197.168L556.07 197.204L556.073 197.24L557.055 197.179ZM568.488 191.375L568.591 190.406L568.487 190.391L568.384 190.398L568.488 191.375ZM577.549 276.76L577.653 277.738L577.775 277.73L577.891 277.693L577.549 276.76ZM565.39 274.217L564.44 274.437L564.463 274.521L564.5 274.6L565.39 274.217ZM557.556 243.095L557.56 242.116L557.506 242.114L557.452 242.117L557.556 243.095ZM541.771 244.068L541.667 243.09L541.577 243.096L541.489 243.118L541.771 244.068ZM538.389 279.015L538.645 279.971L538.75 279.947L538.847 279.901L538.389 279.015ZM530.249 279.676L530.232 280.654L530.292 280.657L530.353 280.654L530.249 279.676ZM516.893 198.539L515.912 198.395L515.901 198.497L515.912 198.6L516.893 198.539ZM520.446 194.336L520.549 195.314L528.018 194.854L527.914 193.876L527.81 192.899L520.342 193.359L520.446 194.336ZM527.914 193.876L527.88 194.852C529.293 194.962 530.241 195.31 530.843 195.784C531.413 196.233 531.777 196.875 531.878 197.828L532.859 197.768L533.84 197.707C533.691 196.303 533.105 195.118 532.027 194.27C530.981 193.447 529.582 193.027 527.949 192.9L527.914 193.876ZM532.859 197.768L531.878 197.828L534.695 224.372L535.676 224.312L536.657 224.251L533.84 197.707L532.859 197.768ZM535.676 224.312L534.695 224.372C534.842 225.754 535.439 226.912 536.535 227.723C537.592 228.504 539.001 228.879 540.641 228.967L540.651 227.989L540.662 227.011C539.227 226.934 538.27 226.615 537.668 226.17C537.106 225.755 536.753 225.156 536.657 224.251L535.676 224.312ZM540.651 227.989L540.755 228.966L555.745 228.042L555.641 227.065L555.537 226.088L540.548 227.012L540.651 227.989ZM555.641 227.065L555.846 228.031C557.451 227.762 558.768 227.228 559.65 226.324C560.565 225.387 560.905 224.16 560.757 222.766L559.776 222.826L558.795 222.887C558.894 223.814 558.668 224.455 558.204 224.931C557.708 225.439 556.835 225.864 555.436 226.099L555.641 227.065ZM559.776 222.826L560.757 222.766L558.036 197.119L557.055 197.179L556.073 197.24L558.795 222.887L559.776 222.826ZM557.055 197.179L558.041 197.19C557.988 195.592 558.257 194.534 558.706 193.878C559.125 193.267 559.775 192.896 560.805 192.832L560.701 191.855L560.598 190.878C559.085 190.971 557.856 191.566 557.059 192.729C556.293 193.848 556.01 195.373 556.069 197.168L557.055 197.179ZM560.701 191.855L560.805 192.832L568.591 192.352L568.488 191.375L568.384 190.398L560.598 190.878L560.701 191.855ZM568.488 191.375L568.384 192.344C569.637 192.528 570.477 192.879 571.008 193.31C571.508 193.716 571.804 194.248 571.882 194.99L572.863 194.93L573.845 194.869C573.714 193.641 573.176 192.596 572.217 191.816C571.29 191.063 570.046 190.621 568.591 190.406L568.488 191.375ZM572.863 194.93L571.882 194.99L580.16 272.987L581.141 272.927L582.122 272.866L573.845 194.869L572.863 194.93ZM581.141 272.927L580.16 272.987C580.221 273.563 580.065 274.046 579.645 274.495C579.195 274.974 578.418 275.437 577.208 275.828L577.549 276.76L577.891 277.693C579.258 277.252 580.368 276.66 581.116 275.862C581.893 275.032 582.244 274.014 582.122 272.866L581.141 272.927ZM577.549 276.76L577.446 275.783L570.189 276.23L570.293 277.208L570.396 278.185L577.653 277.738L577.549 276.76ZM570.293 277.208L570.189 276.23C569.221 276.29 568.464 276.104 567.862 275.736C567.257 275.367 566.719 274.761 566.28 273.833L565.39 274.217L564.5 274.6C565.07 275.806 565.853 276.765 566.883 277.393C567.914 278.022 569.104 278.265 570.396 278.185L570.293 277.208ZM565.39 274.217L566.341 273.996C566.18 273.415 566.075 272.874 566.022 272.372L565.041 272.432L564.06 272.493C564.126 273.116 564.254 273.765 564.44 274.437L565.39 274.217ZM565.041 272.432L566.022 272.372L563.283 246.566L562.302 246.627L561.321 246.687L564.06 272.493L565.041 272.432ZM562.302 246.627L563.283 246.566C563.141 245.225 562.568 244.095 561.509 243.307C560.487 242.547 559.129 242.191 557.56 242.116L557.556 243.095L557.552 244.073C558.911 244.137 559.809 244.438 560.37 244.856C560.892 245.244 561.228 245.812 561.321 246.687L562.302 246.627ZM557.556 243.095L557.452 242.117L541.667 243.09L541.771 244.068L541.875 245.045L557.659 244.072L557.556 243.095ZM541.771 244.068L541.489 243.118C540.08 243.474 538.93 244.061 538.169 244.962C537.387 245.887 537.101 247.041 537.238 248.331L538.219 248.27L539.2 248.21C539.109 247.354 539.3 246.735 539.703 246.259C540.126 245.758 540.866 245.317 542.053 245.017L541.771 244.068ZM538.219 248.27L537.238 248.331L539.999 274.348L540.98 274.287L541.961 274.227L539.2 248.21L538.219 248.27ZM540.98 274.287L539.999 274.348C540.1 275.303 539.959 276.048 539.637 276.635C539.316 277.221 538.773 277.728 537.931 278.129L538.389 279.015L538.847 279.901C539.968 279.367 540.837 278.618 541.38 277.628C541.922 276.638 542.095 275.487 541.961 274.227L540.98 274.287ZM538.389 279.015L538.134 278.059C537.498 278.2 537.012 278.275 536.66 278.297L536.764 279.274L536.868 280.252C537.364 280.221 537.961 280.123 538.645 279.971L538.389 279.015ZM536.764 279.274L536.66 278.297L530.145 278.699L530.249 279.676L530.353 280.654L536.868 280.252L536.764 279.274ZM530.249 279.676L530.266 278.699C528.77 278.608 527.764 278.28 527.13 277.828C526.542 277.407 526.188 276.818 526.096 275.948L525.115 276.009L524.134 276.069C524.28 277.451 524.902 278.599 526.025 279.401C527.103 280.171 528.544 280.551 530.232 280.654L530.249 279.676ZM525.115 276.009L526.096 275.948L517.874 198.479L516.893 198.539L515.912 198.6L524.134 276.069L525.115 276.009ZM516.893 198.539L517.874 198.684C518.005 197.455 518.332 196.641 518.762 196.132C519.17 195.649 519.736 195.364 520.549 195.314L520.446 194.336L520.342 193.359C519.072 193.437 518.004 193.917 517.228 194.835C516.474 195.727 516.066 196.95 515.912 198.395L516.893 198.539ZM642.227 191.929L643.208 191.868L643.204 191.828L643.196 191.787L642.227 191.929ZM642.86 197.892L643.846 197.914L643.845 197.872L643.841 197.831L642.86 197.892ZM615.849 204.603L615.745 203.626L615.688 203.629L615.632 203.639L615.849 204.603ZM617.826 223.232L617.815 224.21L617.872 224.213L617.929 224.209L617.826 223.232ZM633.239 222.282L633.342 221.313L633.239 221.298L633.136 221.304L633.239 222.282ZM638.494 234.121L639.477 234.254L639.486 234.158L639.475 234.061L638.494 234.121ZM615.596 241.907L614.688 241.485L614.644 241.584L614.625 241.691L615.596 241.907ZM615.359 243.196L614.388 242.981L614.363 243.117L614.378 243.257L615.359 243.196ZM616.563 254.543L615.582 254.603L615.595 254.722L615.636 254.835L616.563 254.543ZM645.235 256.44L645.346 255.473L645.239 255.456L645.131 255.463L645.235 256.44ZM646.937 272.483L647.041 273.46L647.175 273.452L647.3 273.408L646.937 272.483ZM606.523 274.974L606.42 275.943L606.523 275.958L606.627 275.952L606.523 274.974ZM593.909 193.792L592.923 193.697L592.919 193.775L592.928 193.852L593.909 193.792ZM598.203 189.543L598.306 190.521L637.82 188.085L637.717 187.107L637.613 186.13L598.099 188.566L598.203 189.543ZM637.717 187.107L637.82 188.085C638.736 188.028 639.392 188.299 639.91 188.853C640.471 189.453 640.954 190.478 641.258 192.07L642.227 191.929L643.196 191.787C642.859 190.019 642.27 188.561 641.328 187.554C640.342 186.5 639.063 186.041 637.613 186.13L637.717 187.107ZM642.227 191.929L641.246 191.989L641.879 197.952L642.86 197.892L643.841 197.831L643.208 191.868L642.227 191.929ZM642.86 197.892L641.874 197.87C641.908 199.459 641.646 200.516 641.22 201.168C640.826 201.769 640.235 202.116 639.316 202.173L639.419 203.15L639.523 204.128C640.97 204.038 642.135 203.436 642.888 202.284C643.609 201.183 643.884 199.684 643.846 197.914L642.86 197.892ZM639.419 203.15L639.316 202.173L615.745 203.626L615.849 204.603L615.952 205.581L639.523 204.128L639.419 203.15ZM615.849 204.603L615.632 203.639C614.039 203.925 612.732 204.452 611.852 205.317C610.934 206.219 610.573 207.399 610.716 208.744L611.697 208.684L612.678 208.623C612.589 207.787 612.804 207.196 613.27 206.738C613.774 206.243 614.658 205.82 616.065 205.567L615.849 204.603ZM611.697 208.684L610.716 208.744L611.886 219.773L612.867 219.713L613.848 219.652L612.678 208.623L611.697 208.684ZM612.867 219.713L611.886 219.773C612.029 221.119 612.634 222.239 613.73 223.017C614.781 223.763 616.183 224.122 617.815 224.21L617.826 223.232L617.836 222.254C616.394 222.177 615.432 221.867 614.831 221.44C614.274 221.045 613.937 220.488 613.848 219.652L612.867 219.713ZM617.826 223.232L617.929 224.209L633.343 223.259L633.239 222.282L633.136 221.304L617.722 222.254L617.826 223.232ZM633.239 222.282L633.136 223.25C634.381 223.434 635.216 223.794 635.748 224.243C636.253 224.67 636.565 225.244 636.651 226.055L637.632 225.995L638.613 225.934C638.479 224.669 637.948 223.586 636.989 222.776C636.056 221.987 634.806 221.529 633.342 221.313L633.239 222.282ZM637.632 225.995L636.651 226.055L637.513 234.182L638.494 234.121L639.475 234.061L638.613 225.934L637.632 225.995ZM638.494 234.121L637.512 233.989C637.397 235.222 637.087 236.035 636.679 236.54C636.295 237.015 635.765 237.29 634.997 237.337L635.101 238.314L635.204 239.292C636.449 239.215 637.491 238.729 638.238 237.806C638.961 236.913 639.342 235.692 639.477 234.254L638.494 234.121ZM635.101 238.314L634.997 237.337L619.583 238.287L619.687 239.265L619.791 240.242L635.204 239.292L635.101 238.314ZM619.687 239.265L619.583 238.287C617.261 238.43 615.56 239.487 614.688 241.485L615.596 241.907L616.504 242.329C617.061 241.052 618.088 240.347 619.791 240.242L619.687 239.265ZM615.596 241.907L614.625 241.691L614.388 242.981L615.359 243.196L616.33 243.412L616.567 242.123L615.596 241.907ZM615.359 243.196L614.378 243.257L615.582 254.603L616.563 254.543L617.544 254.482L616.34 243.136L615.359 243.196ZM616.563 254.543L615.636 254.835C616.12 256.185 616.879 257.27 617.963 257.983C619.046 258.694 620.34 258.959 621.768 258.871L621.664 257.893L621.56 256.916C620.445 256.984 619.619 256.769 619.001 256.364C618.385 255.959 617.865 255.291 617.491 254.25L616.563 254.543ZM621.664 257.893L621.768 258.871L645.338 257.418L645.235 256.44L645.131 255.463L621.56 256.916L621.664 257.893ZM645.235 256.44L645.123 257.407C646.32 257.594 647.119 257.94 647.624 258.361C648.1 258.758 648.387 259.281 648.465 260.012L649.446 259.952L650.427 259.891C650.299 258.688 649.782 257.658 648.854 256.884C647.955 256.135 646.752 255.692 645.346 255.473L645.235 256.44ZM649.446 259.952L648.465 260.012L649.389 268.72L650.37 268.659L651.351 268.599L650.427 259.891L649.446 259.952ZM650.37 268.659L649.389 268.72C649.449 269.286 649.299 269.765 648.897 270.213C648.469 270.689 647.729 271.155 646.575 271.557L646.937 272.483L647.3 273.408C648.613 272.951 649.679 272.349 650.395 271.551C651.138 270.724 651.47 269.722 651.351 268.599L650.37 268.659ZM646.937 272.483L646.834 271.505L606.419 273.997L606.523 274.974L606.627 275.952L647.041 273.46L646.937 272.483ZM606.523 274.974L606.626 274.006C605.381 273.822 604.546 273.462 604.014 273.012C603.509 272.586 603.197 272.011 603.111 271.201L602.13 271.261L601.149 271.322C601.283 272.587 601.814 273.669 602.773 274.48C603.706 275.268 604.956 275.727 606.42 275.943L606.523 274.974ZM602.13 271.261L603.111 271.201L594.89 193.731L593.909 193.792L592.928 193.852L601.149 271.322L602.13 271.261ZM593.909 193.792L594.894 193.886C594.957 192.715 595.294 191.941 595.801 191.44C596.31 190.936 597.103 190.595 598.306 190.521L598.203 189.543L598.099 188.566C596.584 188.659 595.301 189.11 594.378 190.023C593.454 190.937 593.004 192.204 592.923 193.697L593.909 193.792Z" fill="#284A27"/>
</g>
<g opacity="0.9">
<path d="M527.375 87.3405C508.354 110.969 477.092 131.537 446.516 129.784C435.065 129.122 427.041 121.273 425.965 109.662C414.864 123.305 400.6 136.039 383.707 135.163C379.451 134.605 376.073 131.768 375.34 127.401C374.726 123.767 374.853 119.735 375.857 116.093C377.953 108.522 380.686 101.502 383.818 94.3613C385.157 91.3171 386.488 88.5519 386.36 84.6391C378.79 89.03 373.578 95.4053 368.582 102.163C362.518 110.363 358.015 119.193 352.931 128.007L349.68 133.641C341.512 136.789 333.464 138.669 324.746 139.673L322.379 138.574C320.722 137.801 331.703 113.83 334.898 107.335L342.389 89.8908L342.094 87.8746C341.656 84.8304 330.268 93.8911 325.176 99.1188C315.391 109.168 308.139 120.779 301.939 133.33L298.832 138.526C290.146 141.594 281.603 143.331 272.439 143.913L270.758 143.244C270.303 143.06 270.224 141.522 270.439 141.044L276.949 126.317L299.867 79.9691L278.583 88.3925C277.77 95.7081 275.921 103.111 272.391 110.052C260.908 132.668 238.237 151.731 212.028 148.447C203.27 147.356 197.541 140.677 197.349 131.832C197.182 124.03 199.366 116.802 203.047 109.774C210.976 94.6244 222.969 82.1766 237.831 73.6019C251.72 65.585 270.742 63.3299 277.037 79.1485C287.914 76.3275 297.541 71.1554 307.685 66.4856C314.41 63.3936 330.276 61.3295 332.38 63.2341C332.858 63.6724 332.675 65.3939 332.396 65.9996L321.726 88.9742C331.734 80.7342 340.397 72.6537 351.569 66.9239C358.031 63.6088 366.566 59.7118 371.738 62.8437C377.419 66.2863 373.132 76.1521 371.937 83.6988C383.085 73.1717 398.752 56.8989 412.944 56.6519C416.291 56.5961 418.809 58.6042 419.144 62.1505C419.478 65.6967 418.53 69.7609 417.207 73.339L407.82 98.7443L404.84 109.088C404.704 109.55 405.182 110.953 405.422 111.288C408.904 116.045 426.3 95.6445 431.272 87.7232C440.89 72.4067 454.015 60.1581 470.869 53.1215C484.551 47.4077 508.521 43.8057 510.378 58.7556C511.884 70.8606 501.811 80.83 491.803 87.524C481.228 94.5925 469.578 98.7365 457.027 101.876C456.589 107.781 461.195 111.965 466.9 112.156C470.295 112.268 473.746 112.212 477.045 111.24C494.576 106.092 509.207 94.8874 522.729 82.9019C523.781 81.9695 526.427 81.1805 527.367 81.9694C528.642 83.0372 528.626 85.7788 527.391 87.3168L527.375 87.3405ZM491.859 70.7092C494.99 66.6769 497.819 61.5688 495.699 59.8076C493.333 57.8472 485.906 60.9392 481.531 63.9993C472.327 70.4383 464.789 79.3077 460.486 89.7631C473.22 86.2249 483.093 79.3875 491.867 70.7092H491.859ZM258.071 91.6599C253.92 90.592 251.449 88.9981 249.417 84.9817C237.392 93.1101 225.455 109.248 223.065 123.289C222.507 126.556 222.73 131.091 225.902 132.788C235.488 137.912 259.036 107.478 258.071 91.6679V91.6599Z" fill="#FFF0D0" stroke="#284A27" stroke-width="2.13" stroke-miterlimit="10"/>
<path d="M49.4495 188.906C32.8506 197.64 9.04792 198.828 2.64104 182.459C-0.124113 175.391 0.736513 168.37 5.31854 162.712C6.96011 160.68 10.2193 158.672 12.339 160.305C13.0243 163.509 13.6459 166.928 16.8334 168.481C33.2889 176.514 56.7249 152.28 68.4789 139.147C78.9976 127.393 88.2334 115.455 97.6525 102.004L82.4321 102.195C84.5837 92.7198 90.5682 94.0586 97.4293 93.0306L105.231 91.8671C112.753 81.085 120.077 70.247 126.946 58.8672C133.089 48.6827 147.688 22.4008 139.48 16.2327C134.843 12.7503 121.511 15.7786 113.686 18.5439C95.2937 25.0386 78.7346 35.6455 65.2754 49.6631C61.817 53.273 59.2909 57.2176 57.6493 61.6962C56.2389 65.5612 57.8804 69.6015 61.8489 70.8845C68.1442 72.9166 73.0449 70.4224 73.9056 72.3031C75.1965 75.148 65.8412 80.6147 54.7806 79.2201C45.3934 78.0327 39.3371 70.3267 40.0304 60.8833C40.5484 53.9104 43.7917 47.9018 48.0948 42.2279C66.7656 17.6274 108.291 -3.31518 138.261 1.85673C150.198 3.92071 158.064 12.575 159.602 24.6162C160.853 34.3942 158.414 43.9412 154.47 53.1454C148.907 65.6887 142.118 76.8295 134.564 89.0221C145.808 88.2571 156.055 87.1733 166.861 85.6193L216.984 7.09226C223.766 4.60591 230.34 3.43448 237.679 3.12368C238.006 4.31904 237.767 5.80126 237.074 7.08428L195.883 82.5591L216.156 81.2124C216.698 81.1805 217.989 81.6109 218.387 81.8978C218.785 82.1847 218.427 83.7864 218.084 84.1928L212.833 90.3212C211.494 91.3492 207.781 91.6998 205.988 91.915L189.899 93.8674L171.332 131.011C166.479 140.725 163.108 150.471 160.741 161.126C152.605 164.983 143.688 165.923 134.914 165.111C119.367 163.676 149.497 116.436 155.88 104.267L159.673 97.031L127.591 99.6688C110.952 124.692 93.182 152.783 71.4831 173.159C64.7575 179.479 57.6414 184.627 49.4734 188.93L49.4495 188.906Z" fill="#FFF0D0" stroke="#284A27" stroke-width="2.13" stroke-miterlimit="10"/>
</g>
<g opacity="0.9">
<path d="M271.827 422.831C265.826 428.92 259.778 434.538 252.67 439.263C243.315 445.487 229.505 450.468 219.623 445.607C209.487 440.618 212.205 424.728 217.464 413.962C226.11 396.246 240 381.344 256.973 371.232C268.791 364.187 288.115 358.8 296.522 370.148L302.586 362.29C312.109 359.661 321.01 358.059 330.891 357.429C331.035 358.649 330.891 360.099 330.341 361.055L309.997 395.991C306.228 402.462 298.905 416.496 301.869 419.851C306.841 425.477 334.692 400.566 342.486 389.823L358.742 363.215C359.387 362.155 360.726 359.852 361.961 359.366C370.241 356.106 385.27 354.13 385.907 356.003C387.103 359.525 374.576 376.977 371.572 386.03C383.812 375.646 394.569 365.406 408.092 357.756C415.655 353.477 428.333 347.986 433.178 352.927C436.66 356.465 434.078 363.996 431.401 369.821L418.245 398.422C416.436 402.351 414.77 408.336 416.372 410.208C418.253 412.416 426.875 407.276 431.425 403.53C440.645 395.936 449.315 387.664 456.08 377.702L473.301 352.369C479.357 349.094 495.239 346.081 497.605 347.731C497.94 347.962 497.924 349.006 497.916 349.659L481.588 377.384L470.081 400.358C469.476 401.562 469.356 404.941 470.535 405.491C473.396 406.224 476.902 404.471 479.293 402.733C487.82 396.533 494.163 388.588 499.661 379.663L518.898 348.464C525.655 345.324 541.378 342.543 541.696 344.703C541.784 345.3 541.553 346.687 541.226 347.317L521.687 384.739C518.993 389.903 514.778 399.53 516.826 401.857C520.547 406.08 536.843 391.704 542.342 385.05C549.912 366.992 562.686 351.939 579.715 342.089C588.457 337.036 598.059 334.486 607.98 335.498C615.806 336.295 621.161 341.674 622.898 349.388C632.261 346.926 639.059 340.909 644.175 333.243C648.589 326.629 651.37 332.327 657.992 331.912L691.716 329.801L710.618 327.872C717.009 327.219 711.877 336.757 705.869 342.989L687.931 361.589L660.152 389.576L656.662 393.912C665.913 394.461 674.225 394.669 683.174 393.888C696.338 392.732 702.761 385.313 705.638 386.556C709.518 388.23 701.454 404.853 686.289 408.766C680.799 410.184 675.348 410.511 669.683 410.216C653.833 409.387 638.732 410.001 623.065 412.95C615.822 414.312 620.818 402.303 629.114 394.015L676.679 346.52L657.02 346.759C650.637 346.838 644.716 349.237 640.334 353.755C638.445 355.708 635.52 355.31 633.465 356.298L623.543 361.047C619.591 384.867 600.832 408.734 577.962 416.432C570.344 418.998 562.567 420.074 554.837 418.225C544.629 415.787 542.382 410.718 539.537 401.036C528.405 412.448 513.909 424.226 498.713 424.258C494.561 424.266 490.107 422.648 488.449 418.727C487.31 416.026 487.413 412.655 487.198 409.212C477.07 418.719 465.396 428.338 451.426 428.147C444.661 428.059 439.306 423.58 439.489 416.759L439.696 409.061C427.584 420.512 410.3 433.183 393.98 432.793C388.218 432.657 383.485 429.111 383.365 423.007C383.278 418.416 384.226 413.396 386.362 409.196L397.303 387.656C398.785 384.739 400.203 382.372 400.729 378.651C395.693 380.253 392.027 382.739 388.123 385.831C376.552 395.003 366.48 405.65 358.2 417.875L348.398 432.346C340.398 435.653 331.903 437.622 323.249 437.949L320.611 436.984C320.038 436.777 319.926 434.888 320.189 434.323L327.122 419.476C327.305 418.934 327.488 418.6 327.297 418.679L326.086 419.173C318.89 426.186 311.065 432.027 302.259 436.881C295.86 439.805 289.326 442.196 282.409 441.797C276.903 441.479 272.408 438.299 271.635 432.697C271.213 429.613 271.532 426.378 271.843 422.847L271.827 422.831ZM266.775 412.615C276.058 402.845 283.549 391.903 290.115 380.037C287.461 373.79 276.473 378.643 270.05 383.424C260.312 390.668 252.614 399.96 247.084 410.758C244.311 416.177 241.872 423.652 245.546 425.349C250.813 427.788 261.324 418.345 266.775 412.607V412.615ZM603.048 362.585C597.573 361.725 594.593 358.609 592.92 353.046C580.146 361.541 564.248 383.4 567.228 397.88C567.961 401.418 571.221 403.419 574.822 402.526C587.318 399.442 602.992 375.957 603.048 362.585Z" fill="#FFF0D0" stroke="#284A27" stroke-width="2.13" stroke-miterlimit="10"/>
<path d="M126.62 405.754C142.08 375.463 158.328 345.651 179.668 319.003C184.194 313.703 193.127 312.97 199.478 311.838C200.323 312.277 200.084 314.389 199.55 315.257C184.88 338.814 171.859 362.824 160.655 388.453C166.83 388.564 172.377 387.433 178.194 385.393C196.801 378.858 212.364 365.821 222.253 348.791C229.927 335.57 234.613 317.194 225.21 305.065C215.025 291.932 194.195 292.346 178.202 295.876C156.065 300.769 135.768 311.99 120.213 328.374C113.049 335.921 103.001 350.042 107.965 357.844C109.408 360.115 112.611 362.562 116.03 362.283L128.198 361.294C131.911 360.992 126.604 370.953 110.691 372.778C104.308 373.511 97.8131 372.65 92.6733 368.674C88.0195 365.072 85.9556 359.35 85.9396 353.421C85.8998 337.73 100.06 321.473 112.157 311.472C138.924 289.326 175.644 277.341 210.404 280.592C220.333 281.524 229.632 284.178 238.199 289.055C259.539 301.208 261.204 324.956 251.769 346.472C235.967 382.532 195.064 404.654 155.547 400.422L143.219 429.342C137.864 441.901 132.182 453.791 124.429 465.012C113.041 481.5 94.3547 494.242 74.1459 492.441C67.6115 491.859 61.4198 488.967 58.3279 483.109C53.22 473.419 57.1167 461.689 66.4162 456.118C67.6434 455.385 70.8867 455.154 71.7872 456.022L72.0023 461.529C72.09 463.8 72.8311 466.374 74.3212 467.506C79.1822 471.211 86.8959 466.661 91.9481 461.744C106.38 447.687 117.113 424.401 126.628 405.746L126.62 405.754Z" fill="#FFF0D0" stroke="#284A27" stroke-width="2.13" stroke-miterlimit="10"/>
<path d="M741.465 359.589L761.251 339.515L743.035 339.897C726.938 340.24 722.667 352.106 718.475 348.647C717.447 347.795 718.005 344.998 718.674 343.818L728.946 325.864C730.572 323.027 733.185 323.027 736.014 324.007C739.552 325.234 743.712 325.362 747.577 325.067L775.762 322.955L795.907 321.067C796.346 321.027 797.429 321.362 797.748 321.609C800.649 323.888 791.835 334.925 786.887 340.017L741.6 386.668C759.179 388.198 774.487 388.724 787.588 376.778L798.139 365.598C805.821 339.874 831.464 312.476 858.43 311.87C872.272 311.56 880.081 318.843 881.882 332.502C890.026 331.769 896.553 327.928 903.023 323.441C903.86 322.86 905.884 322.27 906.689 322.676C907.621 323.138 908.163 325.131 908.299 326.613C903.063 336.726 892.831 342.065 881.548 344.591C874.886 372.642 849.991 399.681 820.18 399.633C813.622 399.625 807.311 398.159 802.633 393.569C798.983 389.991 797.796 385.066 796.226 379.711C786.998 392.222 777.5 403.626 760.941 403.347L737.026 402.956C727.161 403.243 717.726 404.431 707.909 406.112L705.343 405.73C702.888 405.363 705.892 395.585 711.861 389.545L741.465 359.581V359.589ZM843.76 376.093C852.501 367.319 858.789 356.864 861.243 344.424C854.446 342.774 850.167 337.746 849.481 330.486C837.847 338.885 829.846 350.712 825.511 363.884C824.691 367.957 824.021 371.837 824.826 375.75C825.703 379.998 829.424 382.779 833.695 381.862C837.417 381.066 840.548 378.786 843.768 376.093H843.76Z" fill="#FFF0D0" stroke="#284A27" stroke-width="2.13" stroke-miterlimit="10"/>
</g>
</svg>
